<svg width="1000" height="1000" viewBox="0 0 1000 1000" fill="none" xmlns="http://www.w3.org/2000/svg">
<path d="M578.26 294.052C588.19 274.615 597.86 255.048 607.81 235.621C644.89 245.769 681.96 255.907 719.09 265.835C758.69 276.583 798.21 287.65 837.86 298.227C839.8 298.547 840.95 300.255 842.19 301.613C889.26 357.448 936.45 413.192 983.54 469.016C989.09 475.299 994.06 482.141 1000 488.064V489.363C999.03 489.662 998.25 490.291 997.62 491.041C988.41 490.261 979.16 490.411 969.94 490.591C961.3 490.002 952.65 490.901 944.01 490.431C934.34 490.112 924.68 490.871 915.02 490.491C900 490.881 884.97 490.112 869.96 490.641C853.99 490.062 838 491.12 822.03 490.351C809.34 490.861 796.66 490.241 783.97 490.381C773.65 490.152 763.34 490.931 753.03 490.371C739.36 491.13 725.68 490.042 712.01 490.461C703.36 490.971 694.72 490.142 686.07 490.591C675.72 489.962 665.36 490.841 655 490.471C643.01 490.631 631.02 490.062 619.03 490.551C604.35 491.07 589.66 489.872 574.98 490.591C550.65 490.761 526.31 490.491 501.98 490.491C494.84 490.002 487.69 490.961 480.57 490.261C480.69 488.054 481.45 485.966 482.52 484.049C511.88 425.997 541.1 367.855 570.1 309.634C573.18 304.63 575.52 299.236 578.26 294.052Z" fill="#F58A74"/>
<path d="M510.76 265.696C514.74 264.987 518.69 263.808 522.78 263.998C519.38 267.813 517.77 272.717 515.41 277.152C489.84 327.922 464.49 378.803 438.93 429.573C429.98 447.851 420.95 466.1 411.56 484.149C410.59 486.166 409.96 488.314 409.32 490.461C400.87 490.671 392.42 490.511 383.98 490.341C365 491.031 346.02 490.251 327.05 490.571C311.37 490.851 295.69 490.182 280.02 490.651C268.03 490.621 256.04 490.371 244.06 490.521C236.19 489.952 228.3 491.19 220.45 490.301C220.58 485.996 223.48 482.57 225.34 478.885C238.8 454.114 252.51 429.483 266.11 404.782C285.07 370.283 304.17 335.853 323.25 301.424C385.83 289.957 448.23 277.422 510.76 265.696Z" fill="#F58A74"/>
<path d="M515.41 277.152C517.77 272.717 519.38 267.813 522.78 263.998C538.4 279.37 554.43 294.322 570.1 309.634C541.1 367.855 511.88 425.997 482.52 484.049C481.45 485.966 480.69 488.054 480.57 490.261C457.37 490.152 434.16 490.062 410.97 490.301C419.09 507.451 428.02 524.211 436.19 541.341C463.02 595.348 489.94 649.304 516.78 703.311C518.62 706.587 519.47 710.772 522.91 712.86C522.7 713.049 522.28 713.409 522.07 713.599C455.74 700.874 389.43 687.969 323.05 675.504C304.2 641.004 285.03 606.684 266.1 572.235C250.71 545.017 235.74 517.559 220.45 490.301C228.3 491.19 236.19 489.952 244.06 490.521C256.04 490.371 268.03 490.621 280.02 490.651C295.69 490.182 311.37 490.851 327.05 490.571C346.02 490.251 365 491.031 383.98 490.341C392.42 490.511 400.87 490.671 409.32 490.461C409.96 488.314 410.59 486.166 411.56 484.149C420.95 466.1 429.98 447.851 438.93 429.573C464.49 378.803 489.84 327.922 515.41 277.152Z" fill="#F26359"/>
<path d="M84.27 325.665C134.13 339.549 184.28 352.444 234.01 366.727C230.22 372.13 227.44 378.133 224.3 383.907C207.88 414.501 191.33 445.025 175.06 475.699C172.61 480.473 169.36 484.928 168.24 490.281C155.15 490.701 142.06 490.371 128.98 490.661C117.99 490.102 107 491.061 96.02 490.481C80.01 490.371 64 490.571 47.99 490.641C39.34 490.122 30.68 490.771 22.03 490.581C15.17 490.771 8.24 489.602 1.46 491.09C0.97 490.211 0.48 489.343 0 488.474C11.79 466.2 23.07 443.656 34.75 421.333C51.41 389.52 67.69 357.518 84.27 325.665Z" fill="#F58A74"/>
<path d="M224.3 383.907C227.44 378.133 230.22 372.13 234.01 366.727C244.53 379.562 255.43 392.077 266.11 404.782C252.51 429.483 238.8 454.114 225.34 478.885C223.48 482.57 220.58 485.996 220.45 490.301C203.56 490.092 186.66 490.112 169.78 490.281C188 525.64 207.09 560.569 225.63 595.757C228.29 600.682 230.57 605.845 233.89 610.38C184.15 624.504 134.1 637.578 84.23 651.272C56.64 597.875 29.15 544.438 1.45996 491.09C8.23996 489.602 15.17 490.771 22.03 490.581C30.68 490.771 39.34 490.122 47.99 490.641C64 490.571 80.01 490.371 96.02 490.481C107 491.061 117.99 490.102 128.98 490.661C142.06 490.371 155.15 490.701 168.24 490.281C169.36 484.928 172.61 480.473 175.06 475.699C191.33 445.025 207.88 414.501 224.3 383.907Z" fill="#F26359"/>
<path d="M169.78 490.281C186.66 490.112 203.56 490.092 220.45 490.301C235.74 517.559 250.71 545.017 266.1 572.235C255.33 584.92 244.49 597.545 233.89 610.38C230.57 605.846 228.29 600.682 225.63 595.757C207.09 560.569 188 525.64 169.78 490.281Z" fill="#EE2F25"/>
<path d="M410.97 490.301C434.16 490.062 457.37 490.152 480.57 490.261C499.33 526.469 517.56 562.966 535.97 599.363C547.34 622.026 559.12 644.5 570.12 667.333C554.48 682.605 538.52 697.548 522.91 712.859C519.47 710.772 518.62 706.587 516.78 703.311C489.94 649.304 463.02 595.348 436.19 541.341C428.02 524.211 419.09 507.451 410.97 490.301Z" fill="#EE2F25"/>
<path d="M480.57 490.261C487.69 490.961 494.84 490.002 501.98 490.491C526.31 490.491 550.65 490.761 574.98 490.591C589.66 489.872 604.35 491.071 619.03 490.551C631.02 490.062 643.01 490.631 655 490.471C665.36 490.841 675.72 489.962 686.07 490.591C694.72 490.142 703.36 490.971 712.01 490.461C725.68 490.042 739.36 491.13 753.03 490.371C763.34 490.931 773.65 490.152 783.97 490.381C796.66 490.241 809.34 490.861 822.03 490.351C838 491.12 853.99 490.062 869.96 490.641C884.97 490.112 900 490.881 915.02 490.491C924.68 490.871 934.34 490.112 944.01 490.431C952.65 490.901 961.3 490.002 969.94 490.591C979.16 490.411 988.41 490.261 997.62 491.041C951.78 545.496 905.84 599.863 859.93 654.249C853.09 662.119 846.75 670.469 839.56 678.031C830.08 681.067 820.31 683.314 810.72 686.051C743.14 704.709 675.42 722.828 607.82 741.396C595.07 716.815 583.12 691.794 570.12 667.333C559.12 644.5 547.34 622.026 535.97 599.363C517.56 562.966 499.33 526.469 480.57 490.261Z" fill="#F26359"/>
</svg>
