<svg width="1000" height="1000" viewBox="0 0 1000 1000" fill="none" xmlns="http://www.w3.org/2000/svg">
<path d="M513.059 46C330.005 46 181.611 194.394 181.611 377.448V676.789C181.611 682.712 186.413 687.513 192.337 687.513H256.454V377.448C256.454 235.729 371.34 120.843 513.059 120.843C654.78 120.843 769.664 235.729 769.664 377.448V687.513H833.783C839.706 687.513 844.507 682.712 844.507 676.789V377.448C844.507 194.394 696.114 46 513.059 46Z" fill="#0E9F6E"/>
<path fill-rule="evenodd" clip-rule="evenodd" d="M513.09 202.841C412.688 202.841 331.297 284.232 331.297 384.633V769.477C331.297 869.879 412.688 951.271 513.09 951.271C613.491 951.271 694.885 869.879 694.885 769.477V384.633C694.885 284.232 613.491 202.841 513.09 202.841ZM587.902 398.832V751.664C587.902 792.999 554.394 826.507 513.059 826.507C471.724 826.507 438.216 792.999 438.216 751.664V398.832C438.216 357.497 471.724 323.989 513.059 323.989C554.394 323.989 587.902 357.497 587.902 398.832ZM406.14 398.832C406.14 339.783 454.009 291.914 513.059 291.914C572.108 291.914 619.978 339.783 619.978 398.832V751.664C619.978 810.715 572.108 858.583 513.059 858.583C454.009 858.583 406.14 810.715 406.14 751.664V398.832Z" fill="#0E9F6E"/>
<path d="M85.3837 466.022C85.3837 454.212 94.9576 444.638 106.767 444.638H160.227V685.203H106.767C94.9576 685.203 85.3837 675.634 85.3837 663.819V466.022Z" fill="#0E9F6E"/>
<path d="M865.891 441.599H919.35C931.159 441.599 940.734 451.174 940.734 462.983V660.783C940.734 672.592 931.159 682.167 919.35 682.167H865.891V441.599Z" fill="#0E9F6E"/>
</svg>
